<?xml version="1.0" encoding="UTF-8" standalone="no"?>
<!DOCTYPE svg PUBLIC "-//W3C//DTD SVG 1.1//EN"
 "http://www.w3.org/Graphics/SVG/1.1/DTD/svg11.dtd">
<!-- Generated by graphviz version 2.26.3 (20100126.1600)
 -->
<!-- Title: G Pages: 1 -->
<svg width="566pt" height="512pt"
 viewBox="0.00 0.00 566.00 512.00" xmlns="http://www.w3.org/2000/svg" xmlns:xlink="http://www.w3.org/1999/xlink">
<g id="graph1" class="graph" transform="scale(1 1) rotate(0) translate(4 508)">
<title>G</title>
<polygon fill="white" stroke="white" points="-4,5 -4,-508 563,-508 563,5 -4,5"/>
<g id="graph2" class="cluster"><title>cluster_Global</title>
<polyline fill="none" stroke="gray" points="243,-206 538,-206 "/>
<path fill="none" stroke="gray" d="M538,-206C544,-206 550,-212 550,-218"/>
<polyline fill="none" stroke="gray" points="550,-218 550,-484 "/>
<path fill="none" stroke="gray" d="M550,-484C550,-490 544,-496 538,-496"/>
<polyline fill="none" stroke="gray" points="538,-496 243,-496 "/>
<path fill="none" stroke="gray" d="M243,-496C237,-496 231,-490 231,-484"/>
<polyline fill="none" stroke="gray" points="231,-484 231,-218 "/>
<path fill="none" stroke="gray" d="M231,-218C231,-212 237,-206 243,-206"/>
<text text-anchor="middle" x="390.5" y="-482.1" font-family="Times Roman,serif" font-size="11.00" fill="gray">\</text>
</g>
<!-- \\AppHelper -->
<g id="node2" class="node"><title>\\AppHelper</title>
<polygon fill="none" stroke="black" points="527,-412 455,-412 455,-376 527,-376 527,-412"/>
<text text-anchor="middle" x="491" y="-391.1" font-family="Times Roman,serif" font-size="11.00">AppHelper</text>
</g>
<!-- \\Helper -->
<g id="node9" class="node"><title>\\Helper</title>
<ellipse fill="none" stroke="black" cx="284" cy="-180" rx="46.1672" ry="18.3848"/>
<text text-anchor="middle" x="284" y="-176.4" font-family="Times Roman,serif" font-size="14.00" fill="gray">\Helper</text>
</g>
<!-- \\AppHelper&#45;&gt;\\Helper -->
<g id="edge3" class="edge"><title>\\AppHelper&#45;&gt;\\Helper</title>
<path fill="none" stroke="black" d="M454.279,-378.505C449.06,-375.232 444.087,-371.408 440,-367 385.597,-308.33 428.795,-254.017 368,-202 359.84,-195.019 349.718,-190.219 339.356,-186.928"/>
<polygon fill="none" stroke="black" points="339.974,-183.468 329.405,-184.212 338.131,-190.221 339.974,-183.468"/>
</g>
<!-- \\AppController -->
<g id="node3" class="node"><title>\\AppController</title>
<polygon fill="none" stroke="black" points="329,-466 239,-466 239,-430 329,-430 329,-466"/>
<text text-anchor="middle" x="284" y="-445.1" font-family="Times Roman,serif" font-size="11.00">AppController</text>
</g>
<!-- \\Controller -->
<g id="node11" class="node"><title>\\Controller</title>
<ellipse fill="none" stroke="black" cx="64" cy="-448" rx="63.1385" ry="18.3848"/>
<text text-anchor="middle" x="64" y="-444.4" font-family="Times Roman,serif" font-size="14.00" fill="gray">\Controller</text>
</g>
<!-- \\AppController&#45;&gt;\\Controller -->
<g id="edge5" class="edge"><title>\\AppController&#45;&gt;\\Controller</title>
<path fill="none" stroke="black" d="M238.949,-448C209.898,-448 171.431,-448 137.966,-448"/>
<polygon fill="none" stroke="black" points="137.757,-444.5 127.757,-448 137.757,-451.5 137.757,-444.5"/>
</g>
<!-- \\PagesController -->
<g id="node4" class="node"><title>\\PagesController</title>
<polygon fill="none" stroke="black" points="541,-466 441,-466 441,-430 541,-430 541,-466"/>
<text text-anchor="middle" x="491" y="-445.1" font-family="Times Roman,serif" font-size="11.00">PagesController</text>
</g>
<!-- \\PagesController&#45;&gt;\\AppController -->
<g id="edge7" class="edge"><title>\\PagesController&#45;&gt;\\AppController</title>
<path fill="none" stroke="black" d="M440.362,-448C409.822,-448 370.888,-448 339.511,-448"/>
<polygon fill="none" stroke="black" points="339.183,-444.5 329.183,-448 339.183,-451.5 339.183,-444.5"/>
</g>
<!-- \\AllTest -->
<g id="node5" class="node"><title>\\AllTest</title>
<polygon fill="none" stroke="black" points="518,-358 464,-358 464,-322 518,-322 518,-358"/>
<text text-anchor="middle" x="491" y="-337.1" font-family="Times Roman,serif" font-size="11.00">AllTest</text>
</g>
<!-- \\CakeTestSuite -->
<g id="node14" class="node"><title>\\CakeTestSuite</title>
<ellipse fill="none" stroke="black" cx="284" cy="-126" rx="84.1457" ry="18.3848"/>
<text text-anchor="middle" x="284" y="-122.4" font-family="Times Roman,serif" font-size="14.00" fill="gray">\CakeTestSuite</text>
</g>
<!-- \\AllTest&#45;&gt;\\CakeTestSuite -->
<g id="edge9" class="edge"><title>\\AllTest&#45;&gt;\\CakeTestSuite</title>
<path fill="none" stroke="black" d="M463.847,-329.764C455.396,-325.566 446.58,-320.015 440,-313 386.654,-256.123 426.136,-204.971 368,-153 363.789,-149.235 359.048,-145.995 354.017,-143.206"/>
<polygon fill="none" stroke="black" points="355.223,-139.9 344.701,-138.658 352.152,-146.19 355.223,-139.9"/>
</g>
<!-- \\AppModel -->
<g id="node6" class="node"><title>\\AppModel</title>
<polygon fill="none" stroke="black" points="526,-304 456,-304 456,-268 526,-268 526,-304"/>
<text text-anchor="middle" x="491" y="-283.1" font-family="Times Roman,serif" font-size="11.00">AppModel</text>
</g>
<!-- \\Model -->
<g id="node16" class="node"><title>\\Model</title>
<ellipse fill="none" stroke="black" cx="284" cy="-72" rx="43.8406" ry="18.3848"/>
<text text-anchor="middle" x="284" y="-68.4" font-family="Times Roman,serif" font-size="14.00" fill="gray">\Model</text>
</g>
<!-- \\AppModel&#45;&gt;\\Model -->
<g id="edge11" class="edge"><title>\\AppModel&#45;&gt;\\Model</title>
<path fill="none" stroke="black" d="M455.897,-271.428C450.104,-267.953 444.523,-263.823 440,-259 386.654,-202.123 426.136,-150.971 368,-99 358.81,-90.7848 347.098,-85.0665 335.358,-81.087"/>
<polygon fill="none" stroke="black" points="336.128,-77.6639 325.544,-78.1367 334.112,-84.3675 336.128,-77.6639"/>
</g>
<!-- \\AppShell -->
<g id="node7" class="node"><title>\\AppShell</title>
<polygon fill="none" stroke="black" points="522,-250 460,-250 460,-214 522,-214 522,-250"/>
<text text-anchor="middle" x="491" y="-229.1" font-family="Times Roman,serif" font-size="11.00">AppShell</text>
</g>
<!-- \\Shell -->
<g id="node18" class="node"><title>\\Shell</title>
<ellipse fill="none" stroke="black" cx="284" cy="-18" rx="38.8909" ry="18.3848"/>
<text text-anchor="middle" x="284" y="-14.4" font-family="Times Roman,serif" font-size="14.00" fill="gray">\Shell</text>
</g>
<!-- \\AppShell&#45;&gt;\\Shell -->
<g id="edge13" class="edge"><title>\\AppShell&#45;&gt;\\Shell</title>
<path fill="none" stroke="black" d="M484.006,-213.879C468.725,-176.656 428.787,-91.21 368,-45 357.116,-36.7263 343.612,-30.9398 330.636,-26.912"/>
<polygon fill="none" stroke="black" points="331.444,-23.5033 320.87,-24.1626 329.547,-30.2414 331.444,-23.5033"/>
</g>
</g>
</svg>
